<svg width="24" height="24" viewBox="0 0 24 24" fill="none" xmlns="http://www.w3.org/2000/svg">
<path d="M15.5784 5.93462C15.5783 6.19982 15.4729 6.45413 15.2854 6.64162L10.6994 11.2276C10.5169 11.4178 10.415 11.6711 10.415 11.9346C10.415 12.1982 10.5169 12.4515 10.6994 12.6416L15.2854 17.2276C15.4675 17.4162 15.5683 17.6688 15.566 17.931C15.5638 18.1932 15.4586 18.444 15.2732 18.6294C15.0878 18.8148 14.837 18.92 14.5748 18.9223C14.3126 18.9246 14.06 18.8238 13.8714 18.6416L9.28536 14.0556C8.73989 13.484 8.43555 12.7242 8.43555 11.9341C8.43555 11.144 8.73988 10.3842 9.28536 9.81262L13.8714 5.22762C14.0112 5.08781 14.1894 4.9926 14.3833 4.95404C14.5773 4.91547 14.7783 4.93527 14.961 5.01094C15.1437 5.08661 15.2999 5.21475 15.4098 5.37916C15.5196 5.54357 15.5783 5.73687 15.5784 5.93462Z" fill="#1D6BF3"/>
</svg>
