<svg width="64" height="64" viewBox="0 0 64 64" fill="none" xmlns="http://www.w3.org/2000/svg">
<path fill-rule="evenodd" clip-rule="evenodd" d="M32.0007 5.33301C17.2966 5.33301 5.33398 17.2952 5.33398 31.9997C5.33398 46.7041 17.2966 58.6663 32.0007 58.6663C46.7047 58.6663 58.6673 46.7041 58.6673 31.9997C58.6673 17.2952 46.7047 5.33301 32.0007 5.33301ZM52.5265 19.5553C54.7314 23.1818 56.0009 27.444 56.0009 31.9999C56.0009 36.5558 54.7314 40.8153 52.5265 44.4446C52.1256 45.1042 51.6927 45.7451 51.233 46.3593C50.7706 46.9762 50.2815 47.5691 49.7657 48.1379C48.7341 49.2729 47.5929 50.3117 46.3608 51.2304C46.0535 51.4627 45.7381 51.6843 45.4201 51.9007C44.1425 52.7659 42.7795 53.5083 41.3417 54.1119C40.9835 54.2667 40.6201 54.411 40.2539 54.5445C39.5163 54.8115 38.7653 55.0465 37.9982 55.2442C36.082 55.7382 34.0722 55.9999 32.0009 55.9999C18.7474 55.9999 8.0009 45.2537 8.0009 31.9999C8.0009 18.7461 18.7474 7.99992 32.0009 7.99992C34.0722 7.99992 36.082 8.26163 37.9982 8.75568C38.7653 8.9533 39.5163 9.18563 40.2539 9.45802C40.6201 9.59155 40.9835 9.73309 41.3417 9.88531C42.7795 10.4915 44.1425 11.2366 45.4201 12.0992C45.7381 12.3155 46.0535 12.5371 46.3608 12.7695C47.5929 13.6908 48.7341 14.7243 49.7657 15.8619C50.2815 16.4308 50.7706 17.0263 51.233 17.6405C51.6927 18.2574 52.1256 18.8957 52.5265 19.5553ZM22.7109 31.5332L29.0451 37.8679L44.4936 22.4182L46.3814 24.3046L29.0451 41.6432L20.8231 33.4221L22.7109 31.5332Z" fill="white"/>
</svg>
