<svg width="24" height="20" viewBox="0 0 24 20" fill="none" xmlns="http://www.w3.org/2000/svg">
<path d="M22.3233 6.55971H20.8106V5.04691C20.8106 4.12239 20.0585 3.37024 19.134 3.37024H17.6212V1.85758C17.6212 0.930018 16.8687 0.180908 15.9446 0.180908H1.67667C0.754453 0.180955 0 0.927674 0 1.85758V11.7638C0 12.6883 0.752156 13.4404 1.67667 13.4404H3.18937V14.9532C3.18937 15.8778 3.94153 16.6299 4.86605 16.6299H6.37875V18.1426C6.37875 19.0671 7.13091 19.8193 8.05542 19.8193H22.3234C23.2479 19.8193 24 19.0671 24 18.1426V8.23633C24 7.31186 23.2478 6.55971 22.3233 6.55971ZM14.7343 1.85524L8.81063 7.66057L2.88708 1.85538L14.7343 1.85524ZM1.67442 11.7638L1.67475 3.01169L8.22464 9.43071C8.55019 9.74979 9.07116 9.74969 9.39661 9.43071L15.9465 3.01164L15.9447 11.766L1.67442 11.7638ZM4.8638 14.9532V13.4404H15.9447C16.8692 13.4404 17.6213 12.6883 17.6213 11.7638V5.04494L19.1362 5.04541C19.1362 5.04541 19.1362 5.04593 19.1362 5.04696L19.134 14.9554L4.8638 14.9532ZM22.3233 18.1448L8.05317 18.1425V16.6298H19.134C20.0586 16.6298 20.8107 15.8777 20.8107 14.9532V8.23436L22.3256 8.23479C22.3256 8.23479 22.3257 8.2353 22.3257 8.23633L22.3233 18.1448Z" fill="#B5B5B7"/>
</svg>
