<svg width="24" height="20" viewBox="0 0 24 20" fill="none" xmlns="http://www.w3.org/2000/svg">
<path d="M22.3233 6.55962H20.8106V5.04682C20.8106 4.1223 20.0585 3.37015 19.134 3.37015H17.6212V1.85749C17.6212 0.929926 16.8687 0.180817 15.9446 0.180817H1.67667C0.754453 0.180864 0 0.927583 0 1.85749V11.7637C0 12.6882 0.752156 13.4404 1.67667 13.4404H3.18937V14.9532C3.18937 15.8777 3.94153 16.6298 4.86605 16.6298H6.37875V18.1425C6.37875 19.067 7.13091 19.8192 8.05542 19.8192H22.3234C23.2479 19.8192 24 19.067 24 18.1425V8.23624C24 7.31177 23.2478 6.55962 22.3233 6.55962ZM14.7343 1.85515L8.81063 7.66048L2.88708 1.85529L14.7343 1.85515ZM1.67442 11.7637L1.67475 3.0116L8.22464 9.43062C8.55019 9.7497 9.07116 9.7496 9.39661 9.43062L15.9465 3.01155L15.9447 11.7659L1.67442 11.7637ZM4.8638 14.9531V13.4404H15.9447C16.8692 13.4404 17.6213 12.6882 17.6213 11.7637V5.04485L19.1362 5.04532C19.1362 5.04532 19.1362 5.04583 19.1362 5.04687L19.134 14.9553L4.8638 14.9531ZM22.3233 18.1447L8.05317 18.1424V16.6297H19.134C20.0586 16.6297 20.8107 15.8776 20.8107 14.9531V8.23427L22.3256 8.2347C22.3256 8.2347 22.3257 8.23521 22.3257 8.23624L22.3233 18.1447Z" fill="black"/>
</svg>
