<svg width="24" height="24" viewBox="0 0 24 24" fill="none" xmlns="http://www.w3.org/2000/svg">
<path d="M12.8199 5.57998L11.9999 6.40198L11.1759 5.57798C10.1678 4.57003 8.80064 4.00382 7.37508 4.00391C5.94953 4.00401 4.58239 4.5704 3.57444 5.57848C2.56648 6.58657 2.00027 7.95378 2.00037 9.37934C2.00046 10.8049 2.56685 12.172 3.57494 13.18L11.4699 21.075C11.6106 21.2154 11.8012 21.2943 11.9999 21.2943C12.1987 21.2943 12.3893 21.2154 12.5299 21.075L20.4319 13.178C21.4388 12.1698 22.0043 10.8031 22.0041 9.37828C22.0039 7.95341 21.4381 6.58689 20.4309 5.57898C19.9313 5.07903 19.3381 4.68242 18.6851 4.41182C18.0321 4.14123 17.3322 4.00195 16.6254 4.00195C15.9186 4.00195 15.2187 4.14123 14.5658 4.41182C13.9128 4.68242 13.3196 5.08003 12.8199 5.57998ZM19.3679 12.12L11.9999 19.485L4.63494 12.12C4.27197 11.7609 3.98355 11.3335 3.78627 10.8626C3.58899 10.3916 3.48673 9.88632 3.48537 9.37571C3.48402 8.86511 3.58359 8.35927 3.77836 7.88727C3.97313 7.41527 4.25927 6.98642 4.62032 6.62537C4.98138 6.26431 5.41023 5.97818 5.88222 5.7834C6.35422 5.58863 6.86006 5.48906 7.37067 5.49042C7.88127 5.49178 8.38658 5.59404 8.85753 5.79132C9.32849 5.9886 9.75581 6.27701 10.1149 6.63998L11.4729 7.99698C11.5436 8.06772 11.6277 8.12362 11.7202 8.16138C11.8128 8.19915 11.912 8.21803 12.012 8.21692C12.1119 8.2158 12.2107 8.1947 12.3024 8.15487C12.3941 8.11504 12.4769 8.05728 12.5459 7.98498L13.8799 6.63998C14.6152 5.95556 15.5873 5.583 16.5917 5.60067C17.5961 5.61834 18.5545 6.02487 19.2653 6.73474C19.9761 7.44461 20.3838 8.40248 20.4028 9.40685C20.4217 10.4112 20.0514 11.3838 19.3679 12.12Z" fill="white"/>
</svg>
