<svg width="24" height="24" viewBox="0 0 24 24" fill="none" xmlns="http://www.w3.org/2000/svg">
<path d="M12.5176 5.30812C13.0132 4.74963 13.6156 4.29612 14.2894 3.97437C14.9631 3.65262 15.6945 3.46916 16.4404 3.43483C17.1862 3.4005 17.9314 3.51599 18.6318 3.77448C19.3323 4.03297 19.9738 4.42922 20.5186 4.93983C21.0633 5.45043 21.5002 6.06503 21.8034 6.74731C22.1067 7.4296 22.2701 8.16574 22.284 8.91224C22.298 9.65874 22.1622 10.4005 21.8847 11.0936C21.6071 11.7867 21.1935 12.4172 20.6682 12.9478L12.4568 21.2381C12.397 21.2985 12.3259 21.3464 12.2474 21.3792C12.169 21.4119 12.0849 21.4287 11.9999 21.4287C11.915 21.4287 11.8308 21.4119 11.7524 21.3792C11.674 21.3464 11.6028 21.2985 11.5431 21.2381L3.33164 12.9478C2.33563 11.9423 1.7584 10.5961 1.71656 9.18141C1.67471 7.76668 2.17138 6.3888 3.10622 5.32612C5.3245 2.80355 9.25193 2.79497 11.4822 5.30812L11.9999 5.89098L12.5176 5.30812Z" fill="white"/>
</svg>
