<svg width="22" height="19" viewBox="0 0 22 19" fill="none" xmlns="http://www.w3.org/2000/svg">
<path d="M11.5179 2.30812C12.0134 1.74963 12.6159 1.29612 13.2896 0.974369C13.9634 0.65262 14.6948 0.46916 15.4406 0.434828C16.1864 0.400497 16.9316 0.515988 17.6321 0.774481C18.3325 1.03297 18.9741 1.42922 19.5188 1.93983C20.0636 2.45043 20.5005 3.06503 20.8037 3.74731C21.1069 4.4296 21.2703 5.16574 21.2843 5.91224C21.2982 6.65874 21.1624 7.40047 20.8849 8.09361C20.6074 8.78675 20.1937 9.41724 19.6685 9.94784L11.457 18.2381C11.3973 18.2985 11.3261 18.3464 11.2477 18.3792C11.1693 18.4119 11.0851 18.4287 11.0002 18.4287C10.9152 18.4287 10.8311 18.4119 10.7527 18.3792C10.6742 18.3464 10.6031 18.2985 10.5433 18.2381L2.33189 9.94784C1.33588 8.94226 0.758644 7.59614 0.7168 6.18141C0.674956 4.76668 1.17162 3.3888 2.10646 2.32612C4.32474 -0.196455 8.25217 -0.205026 10.4825 2.30812L11.0002 2.89098L11.5179 2.30812Z" fill="#1D6BF3"/>
</svg>
