<svg width="24" height="24" viewBox="0 0 24 24" fill="none" xmlns="http://www.w3.org/2000/svg">
<path d="M20.6703 3.69333C18.4051 1.32895 15.2709 -0.00539414 11.9965 0.000630666C5.3794 -0.00770364 0.00834381 5.3498 9.49964e-06 11.967C-0.00410745 15.239 1.33009 18.3703 3.69271 20.6338C3.69959 20.6407 3.70215 20.6509 3.70898 20.657C3.77836 20.7238 3.85377 20.7804 3.92406 20.8446C4.11686 21.016 4.30965 21.1934 4.51274 21.3588C4.62154 21.4445 4.73465 21.5301 4.84606 21.6089C5.038 21.752 5.22994 21.8951 5.43042 22.0271C5.56668 22.1128 5.7072 22.1985 5.84683 22.2842C6.03189 22.3956 6.21615 22.5078 6.40724 22.6098C6.5692 22.6955 6.73453 22.7691 6.89906 22.8471C7.079 22.9328 7.25638 23.0184 7.44059 23.0956C7.6248 23.1727 7.80991 23.2327 7.99668 23.2995C8.18345 23.3663 8.34456 23.428 8.52365 23.4829C8.72588 23.5437 8.93323 23.5908 9.13888 23.6414C9.31024 23.6833 9.47647 23.7313 9.653 23.7656C9.88947 23.8128 10.1294 23.8427 10.3693 23.8753C10.5176 23.8959 10.6624 23.925 10.8123 23.9396C11.2048 23.9781 11.6006 23.9996 11.9999 23.9996C12.3992 23.9996 12.7951 23.9781 13.1875 23.9396C13.3375 23.925 13.4823 23.8959 13.6305 23.8753C13.8704 23.8427 14.1103 23.8128 14.3468 23.7656C14.5182 23.7313 14.6896 23.6799 14.8609 23.6414C15.0666 23.5908 15.2739 23.5436 15.4762 23.4829C15.6553 23.428 15.8283 23.3612 16.0031 23.2995C16.178 23.2378 16.3767 23.171 16.5592 23.0956C16.7417 23.0201 16.9208 22.9319 17.1008 22.8471C17.2653 22.7691 17.4307 22.6954 17.5926 22.6098C17.7837 22.5078 17.9679 22.3955 18.153 22.2842C18.2927 22.1985 18.4332 22.1205 18.5694 22.0271C18.7699 21.8952 18.9619 21.7521 19.1538 21.6089C19.2652 21.5232 19.3782 21.4461 19.4871 21.3588C19.6902 21.1959 19.883 21.0229 20.0758 20.8446C20.146 20.7804 20.2214 20.7238 20.2908 20.657C20.2977 20.651 20.3003 20.6407 20.3071 20.6338C25.0855 16.0561 25.248 8.47155 20.6703 3.69333ZM18.7444 19.7367C18.5884 19.8738 18.4273 20.004 18.2645 20.13C18.1686 20.2037 18.0726 20.2765 17.9741 20.3468C17.819 20.4591 17.6613 20.5653 17.5011 20.6673C17.3845 20.7418 17.2654 20.8138 17.1454 20.8841C16.9946 20.9698 16.8412 21.0554 16.6862 21.1411C16.549 21.2113 16.4094 21.2774 16.2689 21.3425C16.1284 21.4076 15.9733 21.477 15.8216 21.5378C15.6699 21.5987 15.5089 21.6561 15.3503 21.7092C15.2055 21.7589 15.0607 21.8103 14.9142 21.854C14.7428 21.9054 14.5637 21.9474 14.3863 21.9903C14.2475 22.0228 14.1104 22.0596 13.9699 22.0871C13.7668 22.1265 13.5595 22.1539 13.3513 22.1822C13.233 22.1976 13.1157 22.219 12.9965 22.231C12.6675 22.2627 12.3341 22.2816 11.9974 22.2816C11.6607 22.2816 11.3273 22.2628 10.9983 22.231C10.8792 22.219 10.7618 22.1976 10.6435 22.1822C10.4353 22.1539 10.228 22.1265 10.0249 22.0871C9.88435 22.0597 9.74724 22.0228 9.60847 21.9903C9.43108 21.9474 9.25456 21.9046 9.08064 21.854C8.93414 21.8103 8.78929 21.7589 8.6445 21.7092C8.48599 21.6544 8.32744 21.5986 8.17321 21.5378C8.01897 21.477 7.87332 21.4102 7.72591 21.3425C7.57851 21.2748 7.44571 21.2114 7.30865 21.1411C7.15356 21.0606 7.00018 20.9757 6.84936 20.8841C6.72941 20.8138 6.61027 20.7418 6.49374 20.6673C6.33353 20.5653 6.17583 20.4591 6.02075 20.3468C5.92219 20.2766 5.82624 20.2037 5.73025 20.13C5.56743 20.004 5.40637 19.8729 5.25042 19.7367C5.21272 19.7084 5.17843 19.6724 5.14163 19.6398C5.17993 16.725 7.05249 14.1512 9.81411 13.2176C11.1949 13.8745 12.7981 13.8745 14.179 13.2176C16.9405 14.1512 18.8131 16.7249 18.8515 19.6398C18.8155 19.6724 18.7812 19.705 18.7444 19.7367ZM9.00859 6.87081C9.93636 5.22082 12.026 4.63536 13.676 5.56313C15.326 6.4909 15.9115 8.58055 14.9837 10.2305C14.6759 10.778 14.2235 11.2304 13.676 11.5382C13.6717 11.5382 13.6666 11.5382 13.6614 11.5433C13.4342 11.6698 13.1941 11.7715 12.9451 11.8467C12.9006 11.8596 12.8594 11.8767 12.8123 11.8878C12.7266 11.9101 12.6366 11.9255 12.5484 11.9409C12.3822 11.97 12.214 11.9869 12.0454 11.9915H11.9477C11.7791 11.9869 11.6109 11.97 11.4447 11.9409C11.359 11.9255 11.2682 11.9101 11.1808 11.8878C11.1354 11.8767 11.0951 11.8596 11.048 11.8467C10.7991 11.7715 10.5589 11.6699 10.3317 11.5433L10.3163 11.5382C8.66629 10.6105 8.08083 8.52081 9.00859 6.87081ZM20.3715 17.9407C19.8217 15.376 18.1328 13.2017 15.7839 12.0344C17.704 9.94276 17.565 6.69052 15.4733 4.77037C13.3816 2.85021 10.1294 2.98928 8.20925 5.08094C6.40412 7.04734 6.40412 10.0681 8.20925 12.0344C5.86033 13.2018 4.17148 15.376 3.62162 17.9407C0.335892 13.3125 1.42417 6.89702 6.05238 3.61129C10.6806 0.325568 17.0961 1.41385 20.3818 6.04205C21.617 7.78186 22.28 9.86298 22.2789 11.9967C22.2789 14.1285 21.612 16.2069 20.3715 17.9407Z" fill="#1A1B22"/>
</svg>
