<svg width="24" height="24" viewBox="0 0 24 24" fill="none" xmlns="http://www.w3.org/2000/svg">
<g clip-path="url(#clip0_397_7915)">
<path d="M20.67 3.69345C18.4048 1.32907 15.2707 -0.00527207 11.9963 0.000752736C5.37916 -0.00758157 0.00809967 5.34992 -0.000234641 11.9671C-0.00435159 15.2391 1.32984 18.3704 3.69247 20.6339C3.69935 20.6408 3.70191 20.6511 3.70873 20.6571C3.77812 20.7239 3.85353 20.7805 3.92382 20.8448C4.11661 21.0161 4.30941 21.1935 4.51249 21.3589C4.62129 21.4446 4.73441 21.5302 4.84582 21.6091C5.03776 21.7521 5.2297 21.8952 5.43017 22.0272C5.56643 22.1129 5.70696 22.1986 5.84659 22.2843C6.03165 22.3957 6.21591 22.5079 6.40699 22.6099C6.56896 22.6956 6.73429 22.7692 6.89882 22.8472C7.07876 22.9329 7.25614 23.0186 7.44035 23.0957C7.62455 23.1728 7.80967 23.2328 7.99643 23.2996C8.1832 23.3664 8.34432 23.4281 8.5234 23.483C8.72564 23.5438 8.93299 23.5909 9.13864 23.6415C9.30999 23.6834 9.47623 23.7314 9.65275 23.7657C9.88923 23.8129 10.1292 23.8429 10.3691 23.8754C10.5174 23.896 10.6622 23.9251 10.8121 23.9397C11.2045 23.9783 11.6004 23.9997 11.9997 23.9997C12.399 23.9997 12.7948 23.9783 13.1873 23.9397C13.3372 23.9251 13.482 23.896 13.6302 23.8754C13.8702 23.8429 14.1101 23.8129 14.3466 23.7657C14.5179 23.7314 14.6893 23.68 14.8607 23.6415C15.0663 23.5909 15.2737 23.5438 15.4759 23.483C15.655 23.4281 15.8281 23.3613 16.0029 23.2996C16.1777 23.2379 16.3765 23.1711 16.559 23.0957C16.7415 23.0203 16.9206 22.932 17.1005 22.8472C17.265 22.7692 17.4304 22.6955 17.5923 22.6099C17.7834 22.5079 17.9676 22.3956 18.1527 22.2843C18.2924 22.1986 18.4329 22.1206 18.5692 22.0272C18.7697 21.8953 18.9616 21.7522 19.1535 21.6091C19.2649 21.5234 19.378 21.4462 19.4868 21.3589C19.6899 21.1961 19.8827 21.023 20.0755 20.8448C20.1458 20.7805 20.2212 20.724 20.2906 20.6571C20.2974 20.6511 20.3 20.6408 20.3069 20.6339C25.0852 16.0562 25.2478 8.47167 20.67 3.69345ZM18.7441 19.7368C18.5882 19.8739 18.4271 20.0042 18.2643 20.1301C18.1684 20.2038 18.0724 20.2766 17.9738 20.3469C17.8187 20.4592 17.6611 20.5654 17.5008 20.6674C17.3843 20.7419 17.2652 20.8139 17.1452 20.8842C16.9944 20.9699 16.841 21.0555 16.6859 21.1412C16.5488 21.2115 16.4091 21.2775 16.2686 21.3426C16.1282 21.4077 15.973 21.4771 15.8213 21.538C15.6697 21.5988 15.5086 21.6562 15.3501 21.7093C15.2053 21.759 15.0605 21.8104 14.9139 21.8541C14.7426 21.9055 14.5635 21.9475 14.3861 21.9904C14.2473 22.0229 14.1102 22.0598 13.9697 22.0872C13.7666 22.1266 13.5592 22.1541 13.351 22.1823C13.2328 22.1977 13.1154 22.2192 12.9963 22.2312C12.6672 22.2628 12.3339 22.2817 11.9972 22.2817C11.6604 22.2817 11.3271 22.2629 10.998 22.2312C10.879 22.2192 10.7616 22.1977 10.6433 22.1823C10.4351 22.1541 10.2277 22.1266 10.0246 22.0872C9.88411 22.0598 9.74699 22.023 9.60822 21.9904C9.43084 21.9476 9.25431 21.9047 9.0804 21.8541C8.9339 21.8104 8.78905 21.759 8.64425 21.7093C8.48575 21.6545 8.3272 21.5988 8.17296 21.538C8.01873 21.4771 7.87308 21.4103 7.72567 21.3426C7.57826 21.2749 7.44547 21.2115 7.3084 21.1412C7.15331 21.0607 6.99993 20.9759 6.84911 20.8842C6.72917 20.8139 6.61003 20.7419 6.4935 20.6674C6.33329 20.5654 6.17559 20.4592 6.0205 20.3469C5.92195 20.2767 5.826 20.2038 5.73001 20.1301C5.56718 20.0042 5.40612 19.8731 5.25018 19.7368C5.21247 19.7085 5.17818 19.6725 5.14138 19.64C5.17969 16.7251 7.05225 14.1513 9.81387 13.2178C11.1947 13.8746 12.7979 13.8746 14.1787 13.2178C16.9403 14.1513 18.8129 16.7251 18.8512 19.64C18.8152 19.6725 18.7809 19.7051 18.7441 19.7368ZM9.00835 6.87094C9.93612 5.22094 12.0258 4.63548 13.6758 5.56325C15.3258 6.49102 15.9112 8.58067 14.9834 10.2307C14.6756 10.7781 14.2233 11.2305 13.6758 11.5384C13.6715 11.5384 13.6663 11.5384 13.6612 11.5435C13.434 11.6699 13.1938 11.7717 12.9449 11.8468C12.9003 11.8597 12.8592 11.8768 12.8121 11.8879C12.7264 11.9102 12.6364 11.9256 12.5481 11.9411C12.3819 11.9701 12.2138 11.987 12.0452 11.9916H11.9475C11.7788 11.987 11.6107 11.9701 11.4445 11.9411C11.3588 11.9256 11.268 11.9102 11.1806 11.8879C11.1352 11.8768 11.0949 11.8597 11.0478 11.8468C10.7988 11.7717 10.5587 11.67 10.3314 11.5435L10.316 11.5384C8.66604 10.6106 8.08058 8.52093 9.00835 6.87094ZM20.3713 17.9409C19.8214 15.3761 18.1326 13.2018 15.7836 12.0345C17.7038 9.94288 17.5647 6.69064 15.4731 4.77049C13.3814 2.85033 10.1292 2.98941 8.20901 5.08107C6.40388 7.04746 6.40388 10.0682 8.20901 12.0345C5.86009 13.2019 4.17124 15.3761 3.62137 17.9409C0.335648 13.3127 1.42393 6.89714 6.05213 3.61142C10.6803 0.32569 17.0958 1.41397 20.3816 6.04217C21.6167 7.78199 22.2797 9.8631 22.2787 11.9968C22.2787 14.1286 21.6117 16.207 20.3713 17.9409Z" fill="#B5B5B7"/>
</g>
<defs>
<clipPath id="clip0_397_7915">
<rect width="24" height="24" fill="white"/>
</clipPath>
</defs>
</svg>
