<svg width="14" height="7" viewBox="0 0 14 7" fill="none" xmlns="http://www.w3.org/2000/svg">
<path d="M12.9993 7C12.7339 6.99994 12.4793 6.89666 12.2917 6.71286L7.70159 2.21855C7.51129 2.03971 7.25773 1.93984 6.99396 1.93984C6.73018 1.93984 6.47663 2.03971 6.28633 2.21855L1.69623 6.71286C1.50746 6.89137 1.25463 6.99015 0.992197 6.98792C0.729766 6.98569 0.478729 6.88262 0.293155 6.70092C0.107581 6.51922 0.00231829 6.27342 3.78363e-05 6.01647C-0.00224262 5.75951 0.0986423 5.51196 0.280963 5.32713L4.87106 0.832821C5.44319 0.298253 6.20363 0 6.99446 0C7.78528 0 8.54572 0.298253 9.11785 0.832821L13.707 5.32713C13.8469 5.46419 13.9422 5.63879 13.9808 5.82886C14.0194 6.01894 13.9996 6.21595 13.9238 6.395C13.8481 6.57404 13.7198 6.72709 13.5553 6.83477C13.3907 6.94246 13.1972 6.99996 12.9993 7Z" fill="#797981"/>
</svg>
