<svg width="20" height="18" viewBox="0 0 20 18" fill="none" xmlns="http://www.w3.org/2000/svg">
<path d="M18.25 3H14.5V2.25C14.4975 1.65402 14.2597 1.08316 13.8383 0.661736C13.4168 0.240313 12.846 0.00246785 12.25 0H7.75C7.15402 0.00246785 6.58316 0.240313 6.16174 0.661736C5.74031 1.08316 5.50247 1.65402 5.5 2.25V3H1.75C1.35218 3 0.970644 3.15804 0.68934 3.43934C0.408035 3.72064 0.25 4.10218 0.25 4.5V16.5C0.25 16.8978 0.408035 17.2794 0.68934 17.5607C0.970644 17.842 1.35218 18 1.75 18H18.25C18.6478 18 19.0294 17.842 19.3107 17.5607C19.592 17.2794 19.75 16.8978 19.75 16.5V4.5C19.75 4.10218 19.592 3.72064 19.3107 3.43934C19.0294 3.15804 18.6478 3 18.25 3ZM7 2.25C7 2.05109 7.07902 1.86032 7.21967 1.71967C7.36032 1.57902 7.55109 1.5 7.75 1.5H12.25C12.4489 1.5 12.6397 1.57902 12.7803 1.71967C12.921 1.86032 13 2.05109 13 2.25V3H7V2.25ZM18.25 4.5V11.25H1.75V4.5H18.25ZM18.25 16.5H1.75V12.75H18.25V16.5Z" fill="#1A1B22"/>
</svg>
